<?xml version="1.0" encoding="UTF-8" standalone="no"?>
<svg
   xmlns:dc="http://purl.org/dc/elements/1.1/"
   xmlns:cc="http://creativecommons.org/ns#"
   xmlns:rdf="http://www.w3.org/1999/02/22-rdf-syntax-ns#"
   xmlns:svg="http://www.w3.org/2000/svg"
   xmlns="http://www.w3.org/2000/svg"
   id="svg8"
   version="1.1"
   viewBox="0 0 128 128"
   height="128mm"
   width="128mm">
  <defs
     id="defs2" />
  <metadata
     id="metadata5">
    <rdf:RDF>
      <cc:Work
         rdf:about="">
        <dc:format>image/svg+xml</dc:format>
        <dc:type
           rdf:resource="http://purl.org/dc/dcmitype/StillImage" />
        <dc:title></dc:title>
      </cc:Work>
    </rdf:RDF>
  </metadata>
  <g
     transform="translate(0,-169)"
     id="layer1">
    <g
       transform="translate(-41.000049,84.500022)"
       id="g4582">
      <path
         style="fill:#2b2e3b;fill-opacity:1;stroke:none;stroke-width:0.49999997;stroke-miterlimit:4;stroke-dasharray:none;stroke-opacity:1"
         d="M 396.84961,324.11719 A 237.14285,237.14285 0 0 0 159.70703,561.25977 237.14285,237.14285 0 0 0 396.84961,798.40234 237.14285,237.14285 0 0 0 633.99414,561.25977 237.14285,237.14285 0 0 0 396.84961,324.11719 Z m 0,68.57031 A 168.57142,168.57142 0 0 1 565.42188,561.25977 168.57142,168.57142 0 0 1 396.84961,729.83203 168.57142,168.57142 0 0 1 228.2793,561.25977 168.57142,168.57142 0 0 1 396.84961,392.6875 Z"
         transform="scale(0.26458333)"
         id="path4485" />
      <circle
         style="fill:#587e88;fill-opacity:1;stroke:none;stroke-width:0.13229166;stroke-miterlimit:4;stroke-dasharray:none;stroke-opacity:1"
         id="path4505"
         cx="105"
         cy="148.5"
         r="36.182114" />
      <path
         style="fill:#9ee9f8;fill-opacity:1;stroke:none;stroke-width:0.13229166;stroke-miterlimit:4;stroke-dasharray:none;stroke-opacity:1"
         d="m 104.95504,131.98833 a 10.21738,10.21738 0 0 0 -8.293032,4.26485 12.154323,12.154323 0 0 0 -12.04836,12.15068 12.154323,12.154323 0 0 0 12.154297,12.1543 12.154323,12.154323 0 0 0 5.180045,-1.17306 5.5812271,5.5812271 0 0 0 3.68298,1.39321 5.5812271,5.5812271 0 0 0 4.7227,-2.61949 9.7331436,9.7331436 0 0 0 5.29942,1.57975 9.7331436,9.7331436 0 0 0 9.73326,-9.73326 9.7331436,9.7331436 0 0 0 -9.73326,-9.73325 9.7331436,9.7331436 0 0 0 -0.66817,0.0243 10.21738,10.21738 0 0 0 -10.02988,-8.308 z"
         id="path4524" />
    </g>
  </g>
</svg>
